<svg width="343" height="217" viewBox="0 0 343 217" fill="none" xmlns="http://www.w3.org/2000/svg">
<g clip-path="url(#clip0_423_7190)">
<path d="M338.889 107.555C338.889 102.388 313.893 99.0228 313.052 94.0957C312.21 89.0484 334.803 78.7135 333.121 73.9066C331.438 68.9795 306.562 73.0654 304.039 68.4988C301.515 63.9322 319.541 47.7088 316.296 43.6229C313.052 39.537 290.699 50.3526 286.854 46.7474C282.888 43.1422 294.785 22.5926 290.339 19.5883C285.892 16.5839 268.227 33.288 263.3 30.8845C258.373 28.6013 262.819 5.64815 257.531 4.08589C252.364 2.52364 241.188 23.3136 235.66 22.5926C227.488 22.2321 227.488 0 219.316 0C211.145 0 211.024 22.4724 202.853 22.4724C194.561 22.4724 194.561 0 186.269 0C177.977 0 177.977 22.4724 169.805 22.4724C161.513 22.4724 161.513 0 153.221 0C144.929 0 144.929 22.4724 136.757 22.4724C128.465 22.4724 128.465 0 120.173 0C118.611 0 117.409 0.841213 116.448 1.92277C115.246 3.24468 114.405 4.92711 113.684 6.60953C112.843 8.53231 112.122 10.5753 111.401 12.498C110.68 14.4208 109.959 16.3436 108.997 18.1462C108.396 19.2277 107.795 20.3093 106.834 21.1505C105.873 22.1119 104.791 22.3522 103.349 22.5926C100.946 22.9531 99.143 20.79 97.7009 19.4681C96.0185 17.7857 94.4562 15.9831 93.0142 14.1805C91.4519 12.2577 89.8897 10.4551 88.2072 8.65248C86.8853 7.33057 85.5634 5.88849 83.881 4.80693C83.16 4.44641 82.1986 3.96572 81.3573 4.32624C76.0697 5.88849 80.396 28.8416 75.589 31.2451C70.6619 33.5284 52.9964 16.9444 48.55 19.9488C44.1036 22.9531 55.8806 43.5027 52.0351 47.1079C48.0693 50.7132 25.8373 39.7774 22.5926 43.9834C19.3479 48.0693 37.3739 64.4129 34.8503 68.8593C32.4468 73.1856 7.57092 69.0997 5.76832 74.0268C4.08589 78.8337 26.6785 89.1686 25.8373 94.2159C24.9961 99.143 0 102.388 0 107.675C0 112.843 24.9961 116.208 25.8373 121.135C26.6785 126.182 4.08589 136.517 5.76832 141.324C7.45075 146.251 32.3266 142.165 34.8503 146.732C37.3739 151.298 19.3479 167.522 22.5926 171.608C25.8373 175.693 48.1895 164.878 52.0351 168.483C56.0008 172.088 44.1036 192.638 48.55 195.642C52.9964 198.647 70.6619 181.942 75.589 184.346C80.5161 186.629 76.0697 209.582 81.3573 211.265C86.4046 212.827 96.8597 193.599 102.508 192.758C102.508 192.758 103.109 192.758 103.349 192.758C111.641 192.758 111.641 215.23 119.933 215.23C128.225 215.23 128.225 192.758 136.397 192.758C144.689 192.758 144.689 215.23 152.981 215.23C161.273 215.23 161.273 192.758 169.444 192.758C177.736 192.758 177.736 215.23 185.908 215.23C194.2 215.23 194.2 192.758 202.492 192.758C210.784 192.758 210.784 215.23 218.956 215.23C227.248 215.23 227.248 193.119 235.179 192.638C240.707 191.917 251.883 212.707 257.051 211.145C262.338 209.582 258.012 186.629 262.819 184.346C267.746 182.063 285.412 198.647 289.858 195.642C294.305 192.638 282.528 172.088 286.373 168.483C290.339 164.878 312.571 175.814 315.816 171.608C319.06 167.522 301.034 151.298 303.558 146.732C306.081 142.165 330.957 146.251 332.64 141.324C334.322 136.517 311.73 126.182 312.571 121.135C313.893 116.087 338.889 112.843 338.889 107.555Z" fill="#C8A34A" fill-opacity="0.8"/>
<path d="M338.889 107.555C338.889 102.388 313.893 99.0228 313.052 94.0957C312.21 89.0484 334.803 78.7135 333.121 73.9066C331.438 68.9795 306.562 73.0654 304.039 68.4988C301.515 63.9322 319.541 47.7088 316.296 43.6229C313.052 39.537 290.699 50.3526 286.854 46.7474C282.888 43.1422 294.785 22.5926 290.339 19.5883C285.892 16.5839 268.227 33.288 263.3 30.8845C258.373 28.6013 262.819 5.64815 257.531 4.08589C252.364 2.52364 241.188 23.3136 235.66 22.5926C227.488 22.2321 227.488 0 219.316 0C211.145 0 211.024 22.4724 202.853 22.4724C194.561 22.4724 194.561 0 186.269 0C177.977 0 177.977 22.4724 169.805 22.4724C161.513 22.4724 161.513 0 153.221 0C144.929 0 144.929 22.4724 136.757 22.4724C128.465 22.4724 128.465 0 120.173 0C118.611 0 117.409 0.841213 116.448 1.92277C115.246 3.24468 114.405 4.92711 113.684 6.60953C112.843 8.53231 112.122 10.5753 111.401 12.498C110.68 14.4208 109.959 16.3436 108.997 18.1462C108.396 19.2277 107.795 20.3093 106.834 21.1505C105.873 22.1119 104.791 22.3522 103.349 22.5926C100.946 22.9531 99.143 20.79 97.7009 19.4681C96.0185 17.7857 94.4562 15.9831 93.0142 14.1805C91.4519 12.2577 89.8897 10.4551 88.2072 8.65248C86.8853 7.33057 85.5634 5.88849 83.881 4.80693C83.16 4.44641 82.1986 3.96572 81.3573 4.32624C76.0697 5.88849 80.396 28.8416 75.589 31.2451C70.6619 33.5284 52.9964 16.9444 48.55 19.9488C44.1036 22.9531 55.8806 43.5027 52.0351 47.1079C48.0693 50.7132 25.8373 39.7774 22.5926 43.9834C19.3479 48.0693 37.3739 64.4129 34.8503 68.8593C32.4468 73.1856 7.57092 69.0997 5.76832 74.0268C4.08589 78.8337 26.6785 89.1686 25.8373 94.2159C24.9961 99.143 0 102.388 0 107.675C0 112.843 24.9961 116.208 25.8373 121.135C26.6785 126.182 4.08589 136.517 5.76832 141.324C7.45075 146.251 32.3266 142.165 34.8503 146.732C37.3739 151.298 19.3479 167.522 22.5926 171.608C25.8373 175.693 48.1895 164.878 52.0351 168.483C56.0008 172.088 44.1036 192.638 48.55 195.642C52.9964 198.647 70.6619 181.942 75.589 184.346C80.5161 186.629 76.0697 209.582 81.3573 211.265C86.4046 212.827 96.8597 193.599 102.508 192.758C102.508 192.758 103.109 192.758 103.349 192.758C111.641 192.758 111.641 215.23 119.933 215.23C128.225 215.23 128.225 192.758 136.397 192.758C144.689 192.758 144.689 215.23 152.981 215.23C161.273 215.23 161.273 192.758 169.444 192.758C177.736 192.758 177.736 215.23 185.908 215.23C194.2 215.23 194.2 192.758 202.492 192.758C210.784 192.758 210.784 215.23 218.956 215.23C227.248 215.23 227.248 193.119 235.179 192.638C240.707 191.917 251.883 212.707 257.051 211.145C262.338 209.582 258.012 186.629 262.819 184.346C267.746 182.063 285.412 198.647 289.858 195.642C294.305 192.638 282.528 172.088 286.373 168.483C290.339 164.878 312.571 175.814 315.816 171.608C319.06 167.522 301.034 151.298 303.558 146.732C306.081 142.165 330.957 146.251 332.64 141.324C334.322 136.517 311.73 126.182 312.571 121.135C313.893 116.087 338.889 112.843 338.889 107.555Z" stroke="white" stroke-width="1.20173"/>
<path d="M338.889 107.555C338.889 102.388 313.893 99.0228 313.052 94.0957C312.21 89.0484 334.803 78.7135 333.121 73.9066C331.438 68.9795 306.562 73.0654 304.039 68.4988C301.515 63.9322 319.541 47.7088 316.296 43.6229C313.052 39.537 290.699 50.3526 286.854 46.7474C282.888 43.1422 294.785 22.5926 290.339 19.5883C285.892 16.5839 268.227 33.288 263.3 30.8845C258.373 28.6013 262.819 5.64815 257.531 4.08589C252.364 2.52364 241.188 23.3136 235.66 22.5926C227.488 22.2321 227.488 0 219.316 0C211.145 0 211.024 22.4724 202.853 22.4724C194.561 22.4724 194.561 0 186.269 0C177.977 0 177.977 22.4724 169.805 22.4724C161.513 22.4724 161.513 0 153.221 0C144.929 0 144.929 22.4724 136.757 22.4724C128.465 22.4724 128.465 0 120.173 0C118.611 0 117.409 0.841213 116.448 1.92277C115.246 3.24468 114.405 4.92711 113.684 6.60953C112.843 8.53231 112.122 10.5753 111.401 12.498C110.68 14.4208 109.959 16.3436 108.997 18.1462C108.396 19.2277 107.795 20.3093 106.834 21.1505C105.873 22.1119 104.791 22.3522 103.349 22.5926C100.946 22.9531 99.143 20.79 97.7009 19.4681C96.0185 17.7857 94.4562 15.9831 93.0142 14.1805C91.4519 12.2577 89.8897 10.4551 88.2072 8.65248C86.8853 7.33057 85.5634 5.88849 83.881 4.80693C83.16 4.44641 82.1986 3.96572 81.3573 4.32624C76.0697 5.88849 80.396 28.8416 75.589 31.2451C70.6619 33.5284 52.9964 16.9444 48.55 19.9488C44.1036 22.9531 55.8806 43.5027 52.0351 47.1079C48.0693 50.7132 25.8373 39.7774 22.5926 43.9834C19.3479 48.0693 37.3739 64.4129 34.8503 68.8593C32.4468 73.1856 7.57092 69.0997 5.76832 74.0268C4.08589 78.8337 26.6785 89.1686 25.8373 94.2159C24.9961 99.143 0 102.388 0 107.675C0 112.843 24.9961 116.208 25.8373 121.135C26.6785 126.182 4.08589 136.517 5.76832 141.324C7.45075 146.251 32.3266 142.165 34.8503 146.732C37.3739 151.298 19.3479 167.522 22.5926 171.608C25.8373 175.693 48.1895 164.878 52.0351 168.483C56.0008 172.088 44.1036 192.638 48.55 195.642C52.9964 198.647 70.6619 181.942 75.589 184.346C80.5161 186.629 76.0697 209.582 81.3573 211.265C86.4046 212.827 96.8597 193.599 102.508 192.758C102.508 192.758 103.109 192.758 103.349 192.758C111.641 192.758 111.641 215.23 119.933 215.23C128.225 215.23 128.225 192.758 136.397 192.758C144.689 192.758 144.689 215.23 152.981 215.23C161.273 215.23 161.273 192.758 169.444 192.758C177.736 192.758 177.736 215.23 185.908 215.23C194.2 215.23 194.2 192.758 202.492 192.758C210.784 192.758 210.784 215.23 218.956 215.23C227.248 215.23 227.248 193.119 235.179 192.638C240.707 191.917 251.883 212.707 257.051 211.145C262.338 209.582 258.012 186.629 262.819 184.346C267.746 182.063 285.412 198.647 289.858 195.642C294.305 192.638 282.528 172.088 286.373 168.483C290.339 164.878 312.571 175.814 315.816 171.608C319.06 167.522 301.034 151.298 303.558 146.732C306.081 142.165 330.957 146.251 332.64 141.324C334.322 136.517 311.73 126.182 312.571 121.135C313.893 116.087 338.889 112.843 338.889 107.555Z" stroke="#F7F6F2" stroke-width="1.20173"/>
<path d="M215.111 17.1849C216.673 17.1849 217.995 18.1463 219.077 19.8287C220.158 21.5111 221.12 23.9146 222.081 26.3181C223.043 28.7215 224.004 31.125 225.206 33.0478C226.407 34.9706 227.97 36.4126 230.013 36.5328C230.854 36.653 231.695 36.2925 232.416 35.9319C233.257 35.4513 234.099 34.8504 235.06 34.0092C236.863 32.4469 238.785 30.2838 240.588 28.2409C242.511 26.1979 244.313 24.155 245.996 22.7129C246.837 21.9918 247.558 21.5111 248.279 21.1506C249 20.7901 249.481 20.7901 249.841 20.9103C250.202 21.0305 250.562 21.391 250.923 21.8717C251.283 22.4725 251.524 23.3137 251.644 24.2751C252.004 26.3181 252.125 28.8417 252.245 31.4855C252.365 34.1293 252.365 36.7732 252.725 38.9363C252.846 40.0178 253.086 40.9792 253.446 41.8204C253.807 42.6617 254.288 43.2625 255.009 43.623C255.73 43.9836 256.691 43.8634 257.532 43.7432C258.494 43.5029 259.575 43.1423 260.657 42.6617C262.94 41.5801 265.464 40.138 268.108 38.5758C270.631 37.1337 273.155 35.6916 275.318 34.7302C276.4 34.2495 277.361 34.0092 278.082 33.7688C278.803 33.6487 279.284 33.6487 279.644 33.889L279.764 34.0092C280.125 34.2495 280.245 34.61 280.365 35.2109C280.485 35.8118 280.365 36.653 280.245 37.7345C279.885 39.7775 279.043 42.181 278.202 44.7046C277.361 47.2282 276.4 49.8721 275.919 52.0352C275.678 53.1167 275.558 54.0781 275.678 54.9193C275.678 55.7605 276.039 56.6018 276.64 57.0825C277.241 57.5631 278.082 57.8035 279.043 57.8035C280.005 57.8035 281.206 57.8035 282.408 57.5631C284.932 57.2026 287.936 56.3614 290.82 55.6404C293.825 54.9193 296.709 54.1983 299.112 53.8378C300.314 53.7176 301.275 53.5974 302.117 53.7176C302.958 53.8378 303.318 53.9579 303.559 54.3185C303.799 54.5588 303.799 54.9193 303.679 55.5202C303.559 56.1211 303.198 56.9623 302.597 57.8035C301.516 59.6061 299.833 61.7692 298.151 63.9323C296.468 66.0955 294.666 68.3787 293.464 70.3015C292.863 71.2629 292.383 72.2243 292.142 73.0655C291.902 73.7865 291.902 74.6278 292.142 75.2286L292.262 75.3488C292.623 76.0698 293.464 76.4304 294.305 76.7909C295.267 77.1514 296.348 77.2716 297.55 77.3917C300.074 77.6321 303.198 77.7523 306.323 77.7523C309.447 77.8724 312.452 77.8724 314.855 78.233C316.057 78.3531 317.018 78.5935 317.739 78.8338C318.34 79.0742 318.701 79.3145 318.821 79.675V79.7952C318.941 80.0356 318.821 80.3961 318.46 80.9969C318.1 81.5978 317.499 82.1987 316.658 82.9197C314.975 84.3618 312.572 85.9241 310.168 87.6065C307.765 89.1687 305.241 90.8512 303.439 92.4134C302.477 93.1345 301.756 93.9757 301.155 94.6967C300.675 95.2976 300.314 96.1388 300.434 96.8598V96.98C300.554 97.701 301.155 98.4221 301.876 98.9028C302.597 99.3835 303.679 99.8642 304.76 100.345C307.044 101.306 310.048 102.147 312.932 103.109C315.816 103.95 318.701 104.911 320.864 105.873C321.945 106.354 322.786 106.834 323.387 107.315C323.868 107.675 324.108 108.036 324.108 108.276V108.396C324.108 108.637 323.868 108.997 323.387 109.478C322.786 109.959 321.945 110.439 320.864 110.92C318.701 111.882 315.937 112.723 312.932 113.684C310.048 114.525 307.044 115.487 304.76 116.448C303.559 116.929 302.597 117.409 301.876 117.89C301.155 118.371 300.554 118.972 300.434 119.693V119.813C300.314 120.654 300.675 121.375 301.155 122.096C301.636 122.817 302.477 123.538 303.439 124.38C305.241 125.942 307.765 127.504 310.168 129.186C312.572 130.869 314.975 132.431 316.658 133.873C317.499 134.594 318.1 135.195 318.46 135.796C318.821 136.277 318.821 136.637 318.821 136.878V136.998C318.701 137.238 318.34 137.599 317.619 137.839C316.898 138.079 315.937 138.32 314.735 138.44C312.331 138.8 309.327 138.8 306.203 138.92C303.078 139.041 299.954 139.041 297.43 139.281C296.228 139.401 295.026 139.642 294.185 139.882C293.344 140.122 292.623 140.603 292.142 141.084L292.022 141.204C291.662 141.925 291.662 142.766 291.902 143.607C292.142 144.448 292.623 145.41 293.224 146.371C294.426 148.294 296.228 150.577 297.911 152.74C299.713 154.904 301.396 157.067 302.357 158.869C302.838 159.831 303.198 160.552 303.439 161.153C303.559 161.753 303.559 162.114 303.318 162.234L303.198 162.354C302.958 162.595 302.477 162.835 301.756 162.955C300.915 163.075 299.954 162.955 298.752 162.835C296.348 162.474 293.464 161.753 290.46 161.032C287.455 160.311 284.451 159.47 282.048 159.11C280.846 158.869 279.644 158.869 278.683 158.869C277.842 158.869 277 159.11 276.4 159.59L276.279 159.71C275.678 160.191 275.438 161.032 275.318 161.874C275.198 162.715 275.438 163.796 275.558 164.758C276.039 166.921 276.88 169.565 277.842 172.088C278.683 174.612 279.524 177.136 279.885 179.058C280.125 180.02 280.125 180.861 280.005 181.582C279.885 182.183 279.764 182.423 279.524 182.664L279.404 182.784C279.043 183.024 278.563 183.024 277.721 182.904C277 182.784 276.039 182.423 274.957 181.943C272.794 180.981 270.271 179.539 267.747 178.097C265.223 176.655 262.58 175.093 260.296 174.011C259.215 173.53 258.133 173.05 257.172 172.93C256.331 172.809 255.61 172.689 254.889 172.93L254.648 173.05C253.927 173.41 253.446 174.011 253.086 174.852C252.725 175.694 252.485 176.655 252.365 177.736C252.004 179.9 252.004 182.664 251.884 185.307C251.764 187.951 251.764 190.595 251.283 192.518C251.043 193.479 250.803 194.32 250.562 194.921C250.322 195.402 249.961 195.762 249.601 195.883H249.481C249.12 196.003 248.519 195.883 247.918 195.642C247.197 195.282 246.476 194.801 245.635 194.08C243.953 192.638 242.15 190.595 240.227 188.552C238.305 186.509 236.382 184.346 234.699 182.784C233.858 181.943 232.897 181.342 232.056 180.861C231.214 180.38 230.373 180.14 229.652 180.26C227.489 180.38 226.047 181.822 224.845 183.745C223.643 185.668 222.682 188.071 221.841 190.475C220.879 192.878 220.038 195.162 218.837 196.844C217.755 198.526 216.433 199.488 214.871 199.488C213.309 199.488 211.987 198.526 210.905 196.724C209.824 195.041 208.862 192.638 207.901 190.235C206.939 187.831 205.978 185.428 204.776 183.505C203.574 181.702 202.012 180.26 199.729 180.26C197.566 180.26 196.004 181.702 194.682 183.505C193.48 185.307 192.519 187.831 191.557 190.235C190.596 192.638 189.634 194.921 188.553 196.724C187.471 198.406 186.149 199.488 184.587 199.488C183.025 199.488 181.703 198.526 180.621 196.724C179.54 195.041 178.578 192.638 177.617 190.235C176.656 187.831 175.694 185.428 174.493 183.505C173.291 181.702 171.729 180.26 169.445 180.26C167.282 180.26 165.72 181.702 164.518 183.505C163.316 185.307 162.355 187.831 161.394 190.235C160.432 192.638 159.471 194.921 158.389 196.724C157.308 198.406 155.986 199.488 154.424 199.488C152.861 199.488 151.539 198.526 150.458 196.724C149.376 195.041 148.415 192.638 147.454 190.235C146.492 187.831 145.531 185.428 144.329 183.505C143.127 181.702 141.565 180.26 139.402 180.26C137.239 180.26 135.677 181.702 134.475 183.505C133.273 185.307 132.312 187.831 131.35 190.235C130.389 192.638 129.428 194.921 128.346 196.724C127.264 198.406 125.943 199.488 124.38 199.488C122.818 199.488 121.496 198.526 120.415 196.724C119.333 195.041 118.372 192.638 117.41 190.235C116.449 187.831 115.487 185.428 114.286 183.505C113.084 181.702 111.522 180.26 109.238 180.26C109.118 180.26 108.878 180.26 108.758 180.26C108.638 180.26 108.638 180.26 108.517 180.26C108.517 180.26 108.517 180.26 108.397 180.26C107.556 180.38 106.835 180.741 105.994 181.222C105.153 181.702 104.311 182.423 103.47 183.264C101.788 184.947 99.8649 186.99 98.0623 189.033C96.2597 191.076 94.4571 192.998 92.8948 194.32C92.0536 195.041 91.3326 195.522 90.7317 195.762C90.1308 196.003 89.7703 196.123 89.4098 196.003H89.2896C88.9291 195.883 88.5686 195.522 88.2081 195.041C87.8476 194.441 87.6072 193.599 87.487 192.638C87.1265 190.595 87.0063 188.071 86.8862 185.428C86.766 182.784 86.766 180.14 86.4055 177.857C86.2853 176.775 86.045 175.814 85.6844 174.973C85.3239 174.251 84.8432 173.651 84.2424 173.29L84.1222 173.17C83.4011 172.809 82.4398 172.93 81.5985 173.05C80.6372 173.29 79.5556 173.651 78.474 174.131C76.1907 175.213 73.6671 176.655 71.0233 178.217C68.4996 179.659 65.976 181.101 63.8129 182.063C62.7313 182.543 61.7699 182.784 61.0489 183.024C60.3279 183.144 59.8472 183.144 59.4866 182.904L59.3665 182.784C59.006 182.543 58.8858 182.183 58.7656 181.582C58.6454 180.981 58.7656 180.14 58.8858 179.058C59.2463 177.015 60.0875 174.612 60.9287 171.968C61.7699 169.445 62.7313 166.801 63.212 164.638C63.4524 163.556 63.5725 162.595 63.4524 161.633C63.4524 160.792 63.212 160.071 62.6112 159.59L62.491 159.47C61.8901 158.989 61.0489 158.749 60.0875 158.749C59.1261 158.749 57.9244 158.749 56.7227 158.989C54.199 159.35 51.1947 160.191 48.3105 160.912C45.3062 161.633 42.422 162.354 40.0186 162.715C38.8168 162.835 37.8555 162.955 37.0142 162.835C36.173 162.715 35.8125 162.595 35.5722 162.234C35.3318 161.994 35.3318 161.633 35.452 161.032C35.5722 160.432 35.9327 159.59 36.5335 158.749C37.6151 156.947 39.2975 154.783 40.98 152.62C42.6624 150.457 44.465 148.174 45.6667 146.251C46.2676 145.29 46.7483 144.328 46.9886 143.487C47.229 142.766 47.229 141.925 46.9886 141.204L46.8685 141.084L46.7483 140.963C46.3878 140.363 45.5465 140.002 44.7053 139.642C43.7439 139.281 42.6624 139.161 41.4607 139.041C38.937 138.8 35.8125 138.68 32.688 138.68C29.5635 138.56 26.5592 138.56 24.1557 138.199C22.954 138.079 21.9926 137.839 21.2715 137.599C20.6707 137.358 20.3101 137.118 20.19 136.757V136.637C20.0698 136.397 20.19 136.036 20.5505 135.435C20.911 134.835 21.5119 134.234 22.3531 133.513C24.0355 132.071 26.439 130.508 28.8425 128.826C31.2459 127.264 33.7696 125.581 35.5722 124.019C36.5335 123.298 37.2546 122.457 37.8555 121.736C38.3361 121.135 38.6967 120.294 38.5765 119.573V119.452C38.4563 118.731 37.8555 118.01 37.1344 117.53C36.4134 117.049 35.3318 116.568 34.2503 116.088C31.967 115.126 28.9626 114.285 26.0785 113.324C23.1943 112.482 20.3101 111.521 18.147 110.56C17.0655 110.079 16.2243 109.598 15.6234 109.118C15.0225 108.637 14.9023 108.276 14.9023 108.036C14.9023 107.796 15.1427 107.435 15.6234 106.954C16.2243 106.474 17.0655 105.993 18.147 105.512C20.3101 104.551 23.0741 103.71 26.0785 102.748C28.9626 101.907 31.967 100.946 34.2503 99.9843C35.452 99.5036 36.4134 99.023 37.1344 98.5423C37.8555 98.0616 38.4563 97.4607 38.5765 96.7397V96.6195C38.6967 95.7783 38.3361 95.0572 37.8555 94.3362C37.3748 93.6152 36.5335 92.8941 35.5722 92.0529C33.7696 90.4906 31.2459 88.9284 28.8425 87.246C26.439 85.5635 24.0355 84.0013 22.3531 82.5592C21.5119 81.8382 20.911 81.2373 20.5505 80.6364C20.19 80.1557 20.19 79.7952 20.19 79.5549V79.4347C20.3101 79.1943 20.6707 78.8338 21.3917 78.5935C22.1127 78.3531 23.0741 78.1128 24.2759 77.9926C26.6793 77.6321 29.6837 77.6321 32.8082 77.5119C35.9327 77.3917 39.0572 77.3917 41.5808 77.1514C42.7826 77.0312 43.9843 76.7909 44.8255 76.5505C45.6667 76.3102 46.3878 75.8295 46.8685 75.2286L46.9886 75.1085C47.3491 74.3874 47.3491 73.5462 47.1088 72.705C46.8685 71.8638 46.3878 70.9024 45.7869 69.941C44.5852 68.0182 42.7826 65.7349 41.1001 63.5718C39.2975 61.4087 37.6151 59.2456 36.6537 57.443C36.173 56.4816 35.8125 55.7605 35.5722 55.1597C35.452 54.5588 35.452 54.1983 35.6923 53.9579L35.8125 53.8378C36.0529 53.5974 36.5335 53.3571 37.2546 53.2369C38.0958 53.1167 39.0572 53.2369 40.2589 53.3571C42.6624 53.7176 45.5465 54.4386 48.5509 55.1597C51.5552 55.8807 54.5595 56.7219 56.963 57.0825C58.1647 57.3228 59.3665 57.3228 60.3279 57.3228C61.1691 57.3228 62.0103 57.0825 62.6112 56.6018L62.7313 56.4816C63.3322 56.0009 63.5725 55.1597 63.6927 54.3185C63.8129 53.4773 63.5725 52.3957 63.4524 51.3141C62.9717 49.151 62.1305 46.5072 61.1691 43.9836C60.3279 41.4599 59.4867 38.9363 59.1261 36.8933C58.8858 35.9319 58.8858 35.0907 59.006 34.3697C59.1261 33.7688 59.2463 33.5285 59.4866 33.2881L59.6068 33.168C59.9673 32.9276 60.448 32.9276 61.2892 33.0478C62.0103 33.168 62.9717 33.5285 64.0532 34.0092C66.2164 34.9706 68.74 36.4126 71.2636 37.8547C73.7873 39.2968 76.4311 40.8591 78.7144 41.9406C79.7959 42.4213 80.8775 42.902 81.8389 43.0222C82.6801 43.1423 83.4011 43.2625 84.1222 43.0222L84.3625 42.902C85.0836 42.5415 85.5643 41.9406 85.9248 41.0994C86.2853 40.2582 86.5256 39.2968 86.6458 38.2152C87.0063 36.0521 87.0063 33.2881 87.1265 30.6443C87.2467 28.0005 87.2467 25.3567 87.7274 23.4339C87.9677 22.4725 88.2081 21.6313 88.4484 21.0305C88.8089 20.4296 89.1695 20.1892 89.53 20.0691C90.1308 19.9489 90.7317 20.1892 91.3326 20.4296C92.4141 21.0305 93.3755 21.8717 94.2167 22.7129L95.058 23.5541C96.6202 25.1163 97.9421 26.6786 99.3842 28.2409C100.586 29.5628 101.788 31.0048 103.23 32.2066L103.831 32.8074C104.431 33.4083 105.273 34.2495 106.114 34.8504C107.075 35.4513 108.157 35.9319 109.479 35.6916C110.68 35.4513 111.882 35.2109 112.964 34.3697C113.925 33.5285 114.526 32.5671 115.007 31.6057C115.968 30.0435 116.569 28.361 117.17 26.7988C117.771 25.3567 118.372 23.7944 118.972 22.3524L119.213 21.7515C119.814 20.4296 120.535 18.9875 121.616 17.9059C122.457 17.0647 123.419 16.4639 124.621 16.4639C126.183 16.4639 127.505 17.4253 128.586 19.2279C129.788 20.9103 130.629 23.3137 131.591 25.7172C132.552 28.1207 133.513 30.5241 134.715 32.4469C135.917 34.2495 137.479 35.6916 139.642 35.6916C141.805 35.6916 143.368 34.2495 144.569 32.4469C145.771 30.6443 146.732 28.1207 147.694 25.7172C148.655 23.3137 149.617 21.0305 150.698 19.2279C151.78 17.5454 153.102 16.4639 154.664 16.4639C156.226 16.4639 157.548 17.4253 158.63 19.2279C159.831 20.9103 160.673 23.3137 161.634 25.7172C162.595 28.1207 163.557 30.5241 164.758 32.4469C165.96 34.2495 167.522 35.6916 169.686 35.6916C171.849 35.6916 173.411 34.2495 174.613 32.4469C175.814 30.6443 176.776 28.1207 177.737 25.7172C178.699 23.3137 179.66 21.0305 180.742 19.2279C181.823 17.5454 183.145 16.4639 184.707 16.4639C186.27 16.4639 187.591 17.4253 188.673 19.2279C189.875 20.9103 190.716 23.3137 191.677 25.7172C192.639 28.1207 193.6 30.5241 194.802 32.4469C196.004 34.2495 197.566 35.6916 199.729 35.6916C201.892 35.6916 203.454 34.2495 204.776 32.4469C205.978 30.6443 206.939 28.1207 207.901 25.7172C208.862 23.3137 209.824 20.9103 210.905 19.2279C212.227 18.1463 213.549 17.1849 215.111 17.1849Z" stroke="white" stroke-width="1.20173"/>
<path d="M215.111 17.1849C216.673 17.1849 217.995 18.1463 219.077 19.8287C220.158 21.5111 221.12 23.9146 222.081 26.3181C223.043 28.7215 224.004 31.125 225.206 33.0478C226.407 34.9706 227.97 36.4126 230.013 36.5328C230.854 36.653 231.695 36.2925 232.416 35.9319C233.257 35.4513 234.099 34.8504 235.06 34.0092C236.863 32.4469 238.785 30.2838 240.588 28.2409C242.511 26.1979 244.313 24.155 245.996 22.7129C246.837 21.9918 247.558 21.5111 248.279 21.1506C249 20.7901 249.481 20.7901 249.841 20.9103C250.202 21.0305 250.562 21.391 250.923 21.8717C251.283 22.4725 251.524 23.3137 251.644 24.2751C252.004 26.3181 252.125 28.8417 252.245 31.4855C252.365 34.1293 252.365 36.7732 252.725 38.9363C252.846 40.0178 253.086 40.9792 253.446 41.8204C253.807 42.6617 254.288 43.2625 255.009 43.623C255.73 43.9836 256.691 43.8634 257.532 43.7432C258.494 43.5029 259.575 43.1423 260.657 42.6617C262.94 41.5801 265.464 40.138 268.108 38.5758C270.631 37.1337 273.155 35.6916 275.318 34.7302C276.4 34.2495 277.361 34.0092 278.082 33.7688C278.803 33.6487 279.284 33.6487 279.644 33.889L279.764 34.0092C280.125 34.2495 280.245 34.61 280.365 35.2109C280.485 35.8118 280.365 36.653 280.245 37.7345C279.885 39.7775 279.043 42.181 278.202 44.7046C277.361 47.2282 276.4 49.8721 275.919 52.0352C275.678 53.1167 275.558 54.0781 275.678 54.9193C275.678 55.7605 276.039 56.6018 276.64 57.0825C277.241 57.5631 278.082 57.8035 279.043 57.8035C280.005 57.8035 281.206 57.8035 282.408 57.5631C284.932 57.2026 287.936 56.3614 290.82 55.6404C293.825 54.9193 296.709 54.1983 299.112 53.8378C300.314 53.7176 301.275 53.5974 302.117 53.7176C302.958 53.8378 303.318 53.9579 303.559 54.3185C303.799 54.5588 303.799 54.9193 303.679 55.5202C303.559 56.1211 303.198 56.9623 302.597 57.8035C301.516 59.6061 299.833 61.7692 298.151 63.9323C296.468 66.0955 294.666 68.3787 293.464 70.3015C292.863 71.2629 292.383 72.2243 292.142 73.0655C291.902 73.7865 291.902 74.6278 292.142 75.2286L292.262 75.3488C292.623 76.0698 293.464 76.4304 294.305 76.7909C295.267 77.1514 296.348 77.2716 297.55 77.3917C300.074 77.6321 303.198 77.7523 306.323 77.7523C309.447 77.8724 312.452 77.8724 314.855 78.233C316.057 78.3531 317.018 78.5935 317.739 78.8338C318.34 79.0742 318.701 79.3145 318.821 79.675V79.7952C318.941 80.0356 318.821 80.3961 318.46 80.9969C318.1 81.5978 317.499 82.1987 316.658 82.9197C314.975 84.3618 312.572 85.9241 310.168 87.6065C307.765 89.1687 305.241 90.8512 303.439 92.4134C302.477 93.1345 301.756 93.9757 301.155 94.6967C300.675 95.2976 300.314 96.1388 300.434 96.8598V96.98C300.554 97.701 301.155 98.4221 301.876 98.9028C302.597 99.3835 303.679 99.8642 304.76 100.345C307.044 101.306 310.048 102.147 312.932 103.109C315.816 103.95 318.701 104.911 320.864 105.873C321.945 106.354 322.786 106.834 323.387 107.315C323.868 107.675 324.108 108.036 324.108 108.276V108.396C324.108 108.637 323.868 108.997 323.387 109.478C322.786 109.959 321.945 110.439 320.864 110.92C318.701 111.882 315.937 112.723 312.932 113.684C310.048 114.525 307.044 115.487 304.76 116.448C303.559 116.929 302.597 117.409 301.876 117.89C301.155 118.371 300.554 118.972 300.434 119.693V119.813C300.314 120.654 300.675 121.375 301.155 122.096C301.636 122.817 302.477 123.538 303.439 124.38C305.241 125.942 307.765 127.504 310.168 129.186C312.572 130.869 314.975 132.431 316.658 133.873C317.499 134.594 318.1 135.195 318.46 135.796C318.821 136.277 318.821 136.637 318.821 136.878V136.998C318.701 137.238 318.34 137.599 317.619 137.839C316.898 138.079 315.937 138.32 314.735 138.44C312.331 138.8 309.327 138.8 306.203 138.92C303.078 139.041 299.954 139.041 297.43 139.281C296.228 139.401 295.026 139.642 294.185 139.882C293.344 140.122 292.623 140.603 292.142 141.084L292.022 141.204C291.662 141.925 291.662 142.766 291.902 143.607C292.142 144.448 292.623 145.41 293.224 146.371C294.426 148.294 296.228 150.577 297.911 152.74C299.713 154.904 301.396 157.067 302.357 158.869C302.838 159.831 303.198 160.552 303.439 161.153C303.559 161.753 303.559 162.114 303.318 162.234L303.198 162.354C302.958 162.595 302.477 162.835 301.756 162.955C300.915 163.075 299.954 162.955 298.752 162.835C296.348 162.474 293.464 161.753 290.46 161.032C287.455 160.311 284.451 159.47 282.048 159.11C280.846 158.869 279.644 158.869 278.683 158.869C277.842 158.869 277 159.11 276.4 159.59L276.279 159.71C275.678 160.191 275.438 161.032 275.318 161.874C275.198 162.715 275.438 163.796 275.558 164.758C276.039 166.921 276.88 169.565 277.842 172.088C278.683 174.612 279.524 177.136 279.885 179.058C280.125 180.02 280.125 180.861 280.005 181.582C279.885 182.183 279.764 182.423 279.524 182.664L279.404 182.784C279.043 183.024 278.563 183.024 277.721 182.904C277 182.784 276.039 182.423 274.957 181.943C272.794 180.981 270.271 179.539 267.747 178.097C265.223 176.655 262.58 175.093 260.296 174.011C259.215 173.53 258.133 173.05 257.172 172.93C256.331 172.809 255.61 172.689 254.889 172.93L254.648 173.05C253.927 173.41 253.446 174.011 253.086 174.852C252.725 175.694 252.485 176.655 252.365 177.736C252.004 179.9 252.004 182.664 251.884 185.307C251.764 187.951 251.764 190.595 251.283 192.518C251.043 193.479 250.803 194.32 250.562 194.921C250.322 195.402 249.961 195.762 249.601 195.883H249.481C249.12 196.003 248.519 195.883 247.918 195.642C247.197 195.282 246.476 194.801 245.635 194.08C243.953 192.638 242.15 190.595 240.227 188.552C238.305 186.509 236.382 184.346 234.699 182.784C233.858 181.943 232.897 181.342 232.056 180.861C231.214 180.38 230.373 180.14 229.652 180.26C227.489 180.38 226.047 181.822 224.845 183.745C223.643 185.668 222.682 188.071 221.841 190.475C220.879 192.878 220.038 195.162 218.837 196.844C217.755 198.526 216.433 199.488 214.871 199.488C213.309 199.488 211.987 198.526 210.905 196.724C209.824 195.041 208.862 192.638 207.901 190.235C206.939 187.831 205.978 185.428 204.776 183.505C203.574 181.702 202.012 180.26 199.729 180.26C197.566 180.26 196.004 181.702 194.682 183.505C193.48 185.307 192.519 187.831 191.557 190.235C190.596 192.638 189.634 194.921 188.553 196.724C187.471 198.406 186.149 199.488 184.587 199.488C183.025 199.488 181.703 198.526 180.621 196.724C179.54 195.041 178.578 192.638 177.617 190.235C176.656 187.831 175.694 185.428 174.493 183.505C173.291 181.702 171.729 180.26 169.445 180.26C167.282 180.26 165.72 181.702 164.518 183.505C163.316 185.307 162.355 187.831 161.394 190.235C160.432 192.638 159.471 194.921 158.389 196.724C157.308 198.406 155.986 199.488 154.424 199.488C152.861 199.488 151.539 198.526 150.458 196.724C149.376 195.041 148.415 192.638 147.454 190.235C146.492 187.831 145.531 185.428 144.329 183.505C143.127 181.702 141.565 180.26 139.402 180.26C137.239 180.26 135.677 181.702 134.475 183.505C133.273 185.307 132.312 187.831 131.35 190.235C130.389 192.638 129.428 194.921 128.346 196.724C127.264 198.406 125.943 199.488 124.38 199.488C122.818 199.488 121.496 198.526 120.415 196.724C119.333 195.041 118.372 192.638 117.41 190.235C116.449 187.831 115.487 185.428 114.286 183.505C113.084 181.702 111.522 180.26 109.238 180.26C109.118 180.26 108.878 180.26 108.758 180.26C108.638 180.26 108.638 180.26 108.517 180.26C108.517 180.26 108.517 180.26 108.397 180.26C107.556 180.38 106.835 180.741 105.994 181.222C105.153 181.702 104.311 182.423 103.47 183.264C101.788 184.947 99.8649 186.99 98.0623 189.033C96.2597 191.076 94.4571 192.998 92.8948 194.32C92.0536 195.041 91.3326 195.522 90.7317 195.762C90.1308 196.003 89.7703 196.123 89.4098 196.003H89.2896C88.9291 195.883 88.5686 195.522 88.2081 195.041C87.8476 194.441 87.6072 193.599 87.487 192.638C87.1265 190.595 87.0063 188.071 86.8862 185.428C86.766 182.784 86.766 180.14 86.4055 177.857C86.2853 176.775 86.045 175.814 85.6844 174.973C85.3239 174.251 84.8432 173.651 84.2424 173.29L84.1222 173.17C83.4011 172.809 82.4398 172.93 81.5985 173.05C80.6372 173.29 79.5556 173.651 78.474 174.131C76.1907 175.213 73.6671 176.655 71.0233 178.217C68.4996 179.659 65.976 181.101 63.8129 182.063C62.7313 182.543 61.7699 182.784 61.0489 183.024C60.3279 183.144 59.8472 183.144 59.4866 182.904L59.3665 182.784C59.006 182.543 58.8858 182.183 58.7656 181.582C58.6454 180.981 58.7656 180.14 58.8858 179.058C59.2463 177.015 60.0875 174.612 60.9287 171.968C61.7699 169.445 62.7313 166.801 63.212 164.638C63.4524 163.556 63.5725 162.595 63.4524 161.633C63.4524 160.792 63.212 160.071 62.6112 159.59L62.491 159.47C61.8901 158.989 61.0489 158.749 60.0875 158.749C59.1261 158.749 57.9244 158.749 56.7227 158.989C54.199 159.35 51.1947 160.191 48.3105 160.912C45.3062 161.633 42.422 162.354 40.0186 162.715C38.8168 162.835 37.8555 162.955 37.0142 162.835C36.173 162.715 35.8125 162.595 35.5722 162.234C35.3318 161.994 35.3318 161.633 35.452 161.032C35.5722 160.432 35.9327 159.59 36.5335 158.749C37.6151 156.947 39.2975 154.783 40.98 152.62C42.6624 150.457 44.465 148.174 45.6667 146.251C46.2676 145.29 46.7483 144.328 46.9886 143.487C47.229 142.766 47.229 141.925 46.9886 141.204L46.8685 141.084L46.7483 140.963C46.3878 140.363 45.5465 140.002 44.7053 139.642C43.7439 139.281 42.6624 139.161 41.4607 139.041C38.937 138.8 35.8125 138.68 32.688 138.68C29.5635 138.56 26.5592 138.56 24.1557 138.199C22.954 138.079 21.9926 137.839 21.2715 137.599C20.6707 137.358 20.3101 137.118 20.19 136.757V136.637C20.0698 136.397 20.19 136.036 20.5505 135.435C20.911 134.835 21.5119 134.234 22.3531 133.513C24.0355 132.071 26.439 130.508 28.8425 128.826C31.2459 127.264 33.7696 125.581 35.5722 124.019C36.5335 123.298 37.2546 122.457 37.8555 121.736C38.3361 121.135 38.6967 120.294 38.5765 119.573V119.452C38.4563 118.731 37.8555 118.01 37.1344 117.53C36.4134 117.049 35.3318 116.568 34.2503 116.088C31.967 115.126 28.9626 114.285 26.0785 113.324C23.1943 112.482 20.3101 111.521 18.147 110.56C17.0655 110.079 16.2243 109.598 15.6234 109.118C15.0225 108.637 14.9023 108.276 14.9023 108.036C14.9023 107.796 15.1427 107.435 15.6234 106.954C16.2243 106.474 17.0655 105.993 18.147 105.512C20.3101 104.551 23.0741 103.71 26.0785 102.748C28.9626 101.907 31.967 100.946 34.2503 99.9843C35.452 99.5036 36.4134 99.023 37.1344 98.5423C37.8555 98.0616 38.4563 97.4607 38.5765 96.7397V96.6195C38.6967 95.7783 38.3361 95.0572 37.8555 94.3362C37.3748 93.6152 36.5335 92.8941 35.5722 92.0529C33.7696 90.4906 31.2459 88.9284 28.8425 87.246C26.439 85.5635 24.0355 84.0013 22.3531 82.5592C21.5119 81.8382 20.911 81.2373 20.5505 80.6364C20.19 80.1557 20.19 79.7952 20.19 79.5549V79.4347C20.3101 79.1943 20.6707 78.8338 21.3917 78.5935C22.1127 78.3531 23.0741 78.1128 24.2759 77.9926C26.6793 77.6321 29.6837 77.6321 32.8082 77.5119C35.9327 77.3917 39.0572 77.3917 41.5808 77.1514C42.7826 77.0312 43.9843 76.7909 44.8255 76.5505C45.6667 76.3102 46.3878 75.8295 46.8685 75.2286L46.9886 75.1085C47.3491 74.3874 47.3491 73.5462 47.1088 72.705C46.8685 71.8638 46.3878 70.9024 45.7869 69.941C44.5852 68.0182 42.7826 65.7349 41.1001 63.5718C39.2975 61.4087 37.6151 59.2456 36.6537 57.443C36.173 56.4816 35.8125 55.7605 35.5722 55.1597C35.452 54.5588 35.452 54.1983 35.6923 53.9579L35.8125 53.8378C36.0529 53.5974 36.5335 53.3571 37.2546 53.2369C38.0958 53.1167 39.0572 53.2369 40.2589 53.3571C42.6624 53.7176 45.5465 54.4386 48.5509 55.1597C51.5552 55.8807 54.5595 56.7219 56.963 57.0825C58.1647 57.3228 59.3665 57.3228 60.3279 57.3228C61.1691 57.3228 62.0103 57.0825 62.6112 56.6018L62.7313 56.4816C63.3322 56.0009 63.5725 55.1597 63.6927 54.3185C63.8129 53.4773 63.5725 52.3957 63.4524 51.3141C62.9717 49.151 62.1305 46.5072 61.1691 43.9836C60.3279 41.4599 59.4867 38.9363 59.1261 36.8933C58.8858 35.9319 58.8858 35.0907 59.006 34.3697C59.1261 33.7688 59.2463 33.5285 59.4866 33.2881L59.6068 33.168C59.9673 32.9276 60.448 32.9276 61.2892 33.0478C62.0103 33.168 62.9717 33.5285 64.0532 34.0092C66.2164 34.9706 68.74 36.4126 71.2636 37.8547C73.7873 39.2968 76.4311 40.8591 78.7144 41.9406C79.7959 42.4213 80.8775 42.902 81.8389 43.0222C82.6801 43.1423 83.4011 43.2625 84.1222 43.0222L84.3625 42.902C85.0836 42.5415 85.5643 41.9406 85.9248 41.0994C86.2853 40.2582 86.5256 39.2968 86.6458 38.2152C87.0063 36.0521 87.0063 33.2881 87.1265 30.6443C87.2467 28.0005 87.2467 25.3567 87.7274 23.4339C87.9677 22.4725 88.2081 21.6313 88.4484 21.0305C88.8089 20.4296 89.1695 20.1892 89.53 20.0691C90.1308 19.9489 90.7317 20.1892 91.3326 20.4296C92.4141 21.0305 93.3755 21.8717 94.2167 22.7129L95.058 23.5541C96.6202 25.1163 97.9421 26.6786 99.3842 28.2409C100.586 29.5628 101.788 31.0048 103.23 32.2066L103.831 32.8074C104.431 33.4083 105.273 34.2495 106.114 34.8504C107.075 35.4513 108.157 35.9319 109.479 35.6916C110.68 35.4513 111.882 35.2109 112.964 34.3697C113.925 33.5285 114.526 32.5671 115.007 31.6057C115.968 30.0435 116.569 28.361 117.17 26.7988C117.771 25.3567 118.372 23.7944 118.972 22.3524L119.213 21.7515C119.814 20.4296 120.535 18.9875 121.616 17.9059C122.457 17.0647 123.419 16.4639 124.621 16.4639C126.183 16.4639 127.505 17.4253 128.586 19.2279C129.788 20.9103 130.629 23.3137 131.591 25.7172C132.552 28.1207 133.513 30.5241 134.715 32.4469C135.917 34.2495 137.479 35.6916 139.642 35.6916C141.805 35.6916 143.368 34.2495 144.569 32.4469C145.771 30.6443 146.732 28.1207 147.694 25.7172C148.655 23.3137 149.617 21.0305 150.698 19.2279C151.78 17.5454 153.102 16.4639 154.664 16.4639C156.226 16.4639 157.548 17.4253 158.63 19.2279C159.831 20.9103 160.673 23.3137 161.634 25.7172C162.595 28.1207 163.557 30.5241 164.758 32.4469C165.96 34.2495 167.522 35.6916 169.686 35.6916C171.849 35.6916 173.411 34.2495 174.613 32.4469C175.814 30.6443 176.776 28.1207 177.737 25.7172C178.699 23.3137 179.66 21.0305 180.742 19.2279C181.823 17.5454 183.145 16.4639 184.707 16.4639C186.27 16.4639 187.591 17.4253 188.673 19.2279C189.875 20.9103 190.716 23.3137 191.677 25.7172C192.639 28.1207 193.6 30.5241 194.802 32.4469C196.004 34.2495 197.566 35.6916 199.729 35.6916C201.892 35.6916 203.454 34.2495 204.776 32.4469C205.978 30.6443 206.939 28.1207 207.901 25.7172C208.862 23.3137 209.824 20.9103 210.905 19.2279C212.227 18.1463 213.549 17.1849 215.111 17.1849Z" stroke="#F7F6F2" stroke-width="1.20173"/>
</g>
<defs>
<clipPath id="clip0_423_7190">
<rect width="342.5" height="216.312" fill="white"/>
</clipPath>
</defs>
</svg>
